<?xml version="1.0" encoding="UTF-8"?>
<svg width="420px" height="326px" viewBox="0 0 420 326" version="1.1" xmlns="http://www.w3.org/2000/svg" xmlns:xlink="http://www.w3.org/1999/xlink">
    <!-- Generator: Sketch 62 (91390) - https://sketch.com -->
    <title>dog</title>
    <desc>Created with Sketch.</desc>
    <defs>
        <radialGradient cx="63.2107104%" cy="35.516296%" fx="63.2107104%" fy="35.516296%" r="58.7352509%" gradientTransform="translate(0.632107,0.355163),scale(0.987003,1.000000),rotate(146.919863),translate(-0.632107,-0.355163)" id="radialGradient-1">
            <stop stop-color="#BBBBEB" offset="0%"></stop>
            <stop stop-color="#8585D2" offset="100%"></stop>
        </radialGradient>
        <radialGradient cx="50%" cy="0%" fx="50%" fy="0%" r="100%" gradientTransform="translate(0.500000,0.000000),scale(0.994984,1.000000),rotate(90.000000),translate(-0.500000,-0.000000)" id="radialGradient-2dog">
            <stop stop-color="#6B6B8F" offset="0%"></stop>
            <stop stop-color="#393956" offset="100%"></stop>
        </radialGradient>
    </defs>
    <g id="Page-1" stroke="none" stroke-width="1" fill="none" fill-rule="evenodd">
        <g id="Desktop-Copy-3" transform="translate(-512.000000, -334.000000)">
            <g id="dog" transform="translate(512.000000, 334.000000)">
                <path d="M31.2969894,141.190616 C20.2436907,167.239294 -17.7422298,161.433407 9.84958207,103.565161 C37.441394,45.6969155 76.5709151,48.0127176 76.5709151,48.0127176 C76.5709151,48.0127176 99.9439107,48.8809573 95.4184768,75.8619133 C95.4184768,75.8619133 66.4676034,58.3064952 31.2969894,141.190616" id="ear_l" fill="#2A2A43"></path>
                <path d="M332.703011,139.190452 C343.756309,165.239085 381.74223,159.433952 354.150418,101.565064 C326.558606,43.6969196 287.429085,46.0127176 287.429085,46.0127176 C287.429085,46.0127176 264.056089,46.8809557 268.581523,73.8618643 C268.581523,73.8618643 297.532397,56.3064771 332.703011,139.190452" id="ear_r" fill="#2A2A43"></path>
                <path d="M406.652812,224.421834 C393.738984,239.197676 368.020526,251.194845 317.371784,247.073924 C317.371784,247.073924 308.071955,215.680912 337.900641,211.054238 C337.900641,211.054238 373.399555,217.675744 398.614355,203.779407 L398.614355,203.779407 C407.030109,199.141461 414.300452,192.218135 418.722681,182 C418.722681,182 423.197652,205.491551 406.652738,224.421685 Z" id="tail" fill="#505081"></path>
                <g id="non-animated-2" transform="translate(16.000000, 0.000000)">
                    <path d="M46.2788295,320.00063 L46.2788295,320.00063 C41.003279,320.00063 36.7266273,315.718074 36.7266273,310.43524 L36.7266273,283.947555 C36.7266273,278.664721 41.003279,274.382165 46.2788295,274.382165 L46.2788295,274.382165 C51.5543801,274.382165 55.8310318,278.664721 55.8310318,283.947555 L55.8310318,310.43524 C55.8310318,315.718074 51.5543801,320.00063 46.2788295,320.00063" id="Fill-11" fill="#9898D2"></path>
                    <path d="M282.384337,320.00063 L282.384337,320.00063 C277.108787,320.00063 272.832135,315.718074 272.832135,310.43524 L272.832135,283.947555 C272.832135,278.664721 277.108787,274.382165 282.384337,274.382165 C287.659888,274.382165 291.93654,278.664721 291.93654,283.947555 L291.93654,310.43524 C291.93654,315.718074 287.659888,320.00063 282.384337,320.00063" id="Fill-13" fill="#9898D2"></path>
                    <path d="M166.600537,325.488791 C181.37638,324.485543 201.927594,325.672955 236.704403,321.203265 C338.01811,308.183315 339.99811,225.696404 319.414268,178.155356 C298.830425,130.614309 288.251144,111.94691 244.06674,46.7216616 C223.628987,16.552181 193.736178,0.13559326 164.825953,0.00563881843 L164.207481,0.00563881843 C134.95465,-0.354520635 106.146021,16.552181 85.7082677,46.7216616 C41.5238632,111.94691 30.9445823,130.614309 10.3607396,178.155356 C-10.2231031,225.696404 -8.24310305,308.183315 93.0706048,321.203265 C127.847414,325.672955 148.398627,324.485543 163.17447,325.488791 L166.600537,325.488791 Z" id="Fill-15" fill="url(#radialGradient-1)"></path>
                </g>
                <path d="M180,246 L180,246 C167.849487,246 158,236.268647 158,224.263865 L158,189.735403 C158,177.731353 167.849487,168 180,168 L180,168 C192.149773,168 202,177.731353 202,189.735403 L202,224.263865 C202,236.268647 192.149773,246 180,246" id="tongue" fill="#F7743F"></path>
                <g id="non-animated" transform="translate(60.000000, 74.000000)">
                    <path d="M74.0489085,49.5666667 C96.4897539,49.5666667 116.061375,39.5896296 126.504189,24.7837037 C116.061375,9.97703704 96.4897539,2.10531181e-14 74.0489085,2.10531181e-14 C51.6080631,2.10531181e-14 32.0364416,9.97703704 21.5936278,24.7837037 C32.0364416,39.5896296 51.6080631,49.5666667 74.0489085,49.5666667" id="Fill-20" fill="#2A2A43"></path>
                    <path d="M165.189354,49.5666667 C187.630199,49.5666667 207.201821,39.5896296 217.644635,24.7837037 C207.201821,9.97703704 187.630199,2.10531181e-14 165.189354,2.10531181e-14 C142.748509,2.10531181e-14 123.176887,9.97703704 112.734073,24.7837037 C123.176887,39.5896296 142.748509,49.5666667 165.189354,49.5666667" id="Fill-22" fill="#2A2A43"></path>
                    <path d="M119.024553,25.8436296 C119.024553,36.3599259 110.456338,44.8851111 99.8869628,44.8851111 C89.3168429,44.8851111 80.7486284,36.3599259 80.7486284,25.8436296 C80.7486284,15.3273333 89.3168429,6.80214815 99.8869628,6.80214815 C110.456338,6.80214815 119.024553,15.3273333 119.024553,25.8436296" id="Fill-24" fill="#FFFFFF"></path>
                    <path d="M106.819332,32.2556296 C106.819332,35.7971111 103.93373,38.6674815 100.375118,38.6674815 C96.8157615,38.6674815 93.9309035,35.7971111 93.9309035,32.2556296 C93.9309035,28.7141481 96.8157615,25.8437778 100.375118,25.8437778 C103.93373,25.8437778 106.819332,28.7141481 106.819332,32.2556296" id="Fill-26" fill="#120802"></path>
                    <path d="M157.423242,25.1504444 C157.423242,35.6897037 148.836415,44.2326667 138.244705,44.2326667 C127.652251,44.2326667 119.065425,35.6897037 119.065425,25.1504444 C119.065425,14.6111852 127.652251,6.06822222 138.244705,6.06822222 C148.836415,6.06822222 157.423242,14.6111852 157.423242,25.1504444" id="Fill-28" fill="#FFFFFF"></path>
                    <path d="M144.40907,31.5762222 C144.40907,35.1251111 141.517512,38.0021481 137.95071,38.0021481 C134.383909,38.0021481 131.492351,35.1251111 131.492351,31.5762222 C131.492351,28.0273333 134.383909,25.1502963 137.95071,25.1502963 C141.517512,25.1502963 144.40907,28.0273333 144.40907,31.5762222" id="Fill-30" fill="#120802"></path>
                    <path d="M126.309136,96.7625926 C126.309136,131.467037 98.0338044,159.60037 63.1541956,159.60037 C28.2753312,159.60037 2.11593799e-14,131.467037 2.11593799e-14,96.7625926 C2.11593799e-14,62.0581481 28.2753312,33.9248148 63.1541956,33.9248148 C98.0338044,33.9248148 126.309136,62.0581481 126.309136,96.7625926" id="cheek1" fill="url(#radialGradient-2dog)"></path>
                    <path d="M235.795864,96.7625926 C235.795864,131.467037 207.520532,159.60037 172.640924,159.60037 C137.762059,159.60037 109.486728,131.467037 109.486728,96.7625926 C109.486728,62.0581481 137.762059,33.9248148 172.640924,33.9248148 C207.520532,33.9248148 235.795864,62.0581481 235.795864,96.7625926" id="cheek2" fill="url(#radialGradient-2dog)"></path>
                    <path d="M143.538029,66.9852593 C143.538029,80.2267407 132.749777,90.9608148 119.441461,90.9608148 C106.133146,90.9608148 95.3448934,80.2267407 95.3448934,66.9852593 C95.3448934,53.7437778 106.133146,43.0097037 119.441461,43.0097037 C132.749777,43.0097037 143.538029,53.7437778 143.538029,66.9852593" id="Fill-36" fill="#FFFFFF"></path>
                </g>
            </g>
        </g>
    </g>
</svg>