<?xml version="1.0" encoding="UTF-8"?>
<svg width="94px" height="98px" viewBox="0 0 94 98" version="1.1" xmlns="http://www.w3.org/2000/svg" xmlns:xlink="http://www.w3.org/1999/xlink">
    <!-- Generator: Sketch 62 (91390) - https://sketch.com -->
    <title>Combined Shape</title>
    <desc>Created with Sketch.</desc>
    <g id="Page-1" stroke="none" stroke-width="1" fill="none" fill-rule="evenodd">
        <g id="Desktop-Copy-4" transform="translate(-123.000000, -83.000000)" fill="#FFFFFF">
            <g id="Group-3" transform="translate(123.000000, 83.000000)">
                <path d="M41,-7.10542736e-14 C63.5,-7.10542736e-14 81.699,18.102 81.699,40.301 C81.699,50.9783226 77.4651767,60.7078295 70.5780412,67.931153 L92.50416,90.50036 C94.20336,92.30116 94.20336,95.10196 92.4026,96.80116 C91.60182,97.60194 90.3987,98.0003597 89.301,98.0003597 C88.1018,98 87.0002,97.5 86.1018,96.6016 L63.7482719,73.6850027 C57.2448246,78.0490906 49.4113105,80.602 41,80.602 C18.5,80.602 0.300578324,62.5 0.300578324,40.301 C0.199439,18.102 18.5,-7.10542736e-14 41,-7.10542736e-14 Z M41,8.89899 C23.398,8.89899 9.102,23.00099 9.102,40.30099 C9.102,57.601 23.399,71.699 41,71.699 C58.5,71.699 72.801,57.597 72.801,40.30099 C72.801,22.99999 58.5,8.89899 41,8.89899 Z" id="Combined-Shape"></path>
            </g>
        </g>
    </g>
</svg>