<?xml version="1.0" encoding="UTF-8"?>
<svg width="377px" height="326px" viewBox="0 0 377 326" version="1.1" xmlns="http://www.w3.org/2000/svg" xmlns:xlink="http://www.w3.org/1999/xlink">
    <!-- Generator: Sketch 62 (91390) - https://sketch.com -->
    <title>cat</title>
    <desc>Created with Sketch.</desc>
    <defs>
        <linearGradient x1="82.8789791%" y1="17.3462266%" x2="50%" y2="66.5227431%" id="linearGradient-1">
            <stop stop-color="#545478" offset="0%"></stop>
            <stop stop-color="#2A2A43" offset="100%"></stop>
        </linearGradient>
        <radialGradient cx="63.2107104%" cy="35.516296%" fx="63.2107104%" fy="35.516296%" r="70.0519236%" gradientTransform="translate(0.632107,0.355163),scale(0.779873,1.000000),rotate(152.765246),translate(-0.632107,-0.355163)" id="radialGradient-2">
            <stop stop-color="#BBBBEB" offset="0%"></stop>
            <stop stop-color="#8585D2" offset="100%"></stop>
        </radialGradient>
    </defs>
    <g id="Page-1" stroke="none" stroke-width="1" fill="none" fill-rule="evenodd">
        <g id="Desktop-Copy-3" transform="translate(-133.000000, -345.000000)">
            <g id="cat" transform="translate(164.000000, 345.000000)">
                <path d="M88.2189211,51.7126317 C85.2389748,41.1325004 82.8147211,27.0170569 84.6194672,12.0662624 C85.6010712,3.93320118 94.3308224,-0.547318521 101.242921,3.53285197 C106.905249,6.87425649 114.318547,10.8563672 123.188117,14.7566386 C130.194146,17.8385166 132.251284,27.0377011 127.209181,32.9131761 L107.303914,56.1105747 C101.480256,62.8973419 90.6675535,60.4060343 88.2189211,51.7126317" id="ear_l" fill="#2A2A43"></path>
                <path d="M273.781079,51.7126317 C276.761025,41.1325004 279.185279,27.0170569 277.380533,12.0662624 C276.398929,3.93320118 267.669178,-0.547318521 260.757079,3.53285197 C255.094751,6.87425649 247.681453,10.8563672 238.811883,14.7566386 C231.805854,17.8385166 229.748716,27.0377011 234.790819,32.9131761 L254.696086,56.1105747 C260.519744,62.8973419 271.332446,60.4060343 273.781079,51.7126317" id="ear_r" fill="#2A2A43"></path>
                <g id="non-animated">
                    <path d="M62.3891393,320.00063 L62.3891393,320.00063 C57.1183812,320.00063 52.8456146,315.718074 52.8456146,310.43524 L52.8456146,283.947555 C52.8456146,278.664721 57.1183812,274.382165 62.3891393,274.382165 L62.3891393,274.382165 C67.6598973,274.382165 71.9326639,278.664721 71.9326639,283.947555 L71.9326639,310.43524 C71.9326639,315.718074 67.6598973,320.00063 62.3891393,320.00063" id="Fill-5" fill="#9898D2"></path>
                    <path d="M298.280085,320.00063 L298.280085,320.00063 C293.009327,320.00063 288.73656,315.718074 288.73656,310.43524 L288.73656,283.947555 C288.73656,278.664721 293.009327,274.382165 298.280085,274.382165 L298.280085,274.382165 C303.550843,274.382165 307.823609,278.664721 307.823609,283.947555 L307.823609,310.43524 C307.823609,315.718074 303.550843,320.00063 298.280085,320.00063" id="Fill-7" fill="#9898D2"></path>
                    <path d="M83.6921444,210.408489 C83.6921444,210.408489 -59.188074,232.035136 28.4269795,93.3796876" id="Stroke-9" stroke="#2A2A43" stroke-width="60" stroke-linecap="round"></path>
                    <path d="M182.601542,325.488791 C197.364702,324.485543 217.896505,325.672955 252.641722,321.203265 C353.863392,308.183315 355.841593,225.696404 335.27645,178.155356 C314.711306,130.614309 304.141636,111.94691 259.997371,46.7216616 C239.578184,16.552181 209.712531,0.13559326 180.82857,0.00563881843 L180.21066,0.00563881843 C150.984403,-0.354520635 122.201944,16.552181 101.782758,46.7216616 C57.6384926,111.94691 47.0688223,130.614309 26.5036789,178.155356 C5.9385354,225.696404 7.91673668,308.183315 109.138407,321.203265 C143.883623,325.672955 164.416167,324.485543 179.178587,325.488791 L182.601542,325.488791 Z" id="Fill-11" fill="url(#linearGradient-1)"></path>
                    <path d="M135.230511,130.720054 C157.563441,130.720054 177.040944,120.718018 187.433539,105.874993 C177.040944,91.0312252 157.563441,81.0291887 135.230511,81.0291887 C112.897582,81.0291887 93.4200789,91.0312252 83.0274836,105.874993 C93.4200789,120.718018 112.897582,130.720054 135.230511,130.720054" id="Fill-14" fill="#F7743F"></path>
                    <path d="M225.932744,130.720054 C248.265674,130.720054 267.743177,120.718018 278.135772,105.874993 C267.743177,91.0312252 248.265674,81.0291887 225.932744,81.0291887 C203.599815,81.0291887 184.122312,91.0312252 173.729717,105.874993 C184.122312,120.718018 203.599815,130.720054 225.932744,130.720054" id="Fill-16" fill="#F7743F"></path>
                    <path d="M220.400375,114.962521 C227.993111,114.962521 234.614529,110.815861 238.147878,104.661218 C234.614529,98.5073185 227.993111,94.360658 220.400375,94.360658 C212.807638,94.360658 206.186221,98.5073185 202.652872,104.661218 C206.186221,110.815861 212.807638,114.962521 220.400375,114.962521" id="Fill-18" fill="#FFFFFF"></path>
                    <path d="M180.862651,129.024186 L180.862651,151.58799 C180.862651,151.58799 179.231191,161.398437 171.07463,161.398437" id="Stroke-20" stroke="#FFFFFF" stroke-width="10" stroke-linecap="round"></path>
                    <path d="M180.917403,129.024186 L180.917403,151.58799 C180.917403,151.58799 182.548864,161.398437 190.705425,161.398437" id="Stroke-22" stroke="#FFFFFF" stroke-width="10" stroke-linecap="round"></path>
                    <path d="M141.606914,114.962521 C149.19965,114.962521 155.821068,110.815861 159.354417,104.661218 C155.821068,98.5073185 149.19965,94.360658 141.606914,94.360658 C134.014177,94.360658 127.392759,98.5073185 123.85941,104.661218 C127.392759,110.815861 134.014177,114.962521 141.606914,114.962521" id="Fill-24" fill="#FFFFFF"></path>
                    <path d="M135.253257,105.536888 C135.253257,109.516465 137.416683,112.987362 140.628482,114.839399 C143.83954,112.987362 146.002966,109.516465 146.002966,105.536888 C146.002966,101.557312 143.83954,98.0864147 140.628482,96.2343782 C137.416683,98.0864147 135.253257,101.557312 135.253257,105.536888" id="Fill-26" fill="#120802"></path>
                    <path d="M215.188666,105.536888 C215.188666,109.516465 217.352093,112.987362 220.563891,114.839399 C223.774949,112.987362 225.938375,109.516465 225.938375,105.536888 C225.938375,101.557312 223.774949,98.0864147 220.563891,96.2343782 C217.352093,98.0864147 215.188666,101.557312 215.188666,105.536888" id="Fill-28" fill="#120802"></path>
                    <path d="M39.59989,148.808005 C39.59989,148.808005 44.6372647,182.58205 73.8709307,184.485326 C73.8709307,184.485326 50.3644168,193.403914 34.2431876,160.111071 L39.59989,148.808005 Z" id="Fill-34" fill="#505081"></path>
                    <path d="M28.6922215,171.851972 C28.6922215,171.851972 36.48426,211.727935 71.334684,212.420778 C71.334684,212.420778 43.8702857,224.283762 22.9287654,185.574418 L28.6922215,171.851972 Z" id="Fill-36" fill="#505081"></path>
                    <path d="M20.341693,193.153955 C20.341693,193.153955 23.6475859,233.652215 58.203132,238.23775 C58.203132,238.23775 31.5292733,240.536088 16.8476116,215.519486 L20.341693,193.153955 Z" id="Fill-38" fill="#505081"></path>
                    <path d="M321.756741,148.808005 C321.756741,148.808005 316.719366,182.58205 287.4857,184.485326 C287.4857,184.485326 310.992214,193.403914 327.113443,160.111071 L321.756741,148.808005 Z" id="Fill-40" fill="#505081"></path>
                    <path d="M332.664335,171.851972 C332.664335,171.851972 324.872296,211.727935 290.021872,212.420778 C290.021872,212.420778 317.486271,224.283762 338.427791,185.574418 L332.664335,171.851972 Z" id="Fill-42" fill="#505081"></path>
                    <path d="M341.014938,193.153955 C341.014938,193.153955 337.709045,233.652215 303.153499,238.23775 C303.153499,238.23775 329.827357,240.536088 344.509019,215.519486 L341.014938,193.153955 Z" id="Fill-44" fill="#505081"></path>
                    <path d="M190.019204,123.63479 L185.422664,128.24186 C182.919165,130.751095 178.860519,130.751095 176.357761,128.24186 L171.761221,123.63479 C167.72332,119.587637 170.58245,112.667377 176.293302,112.667377 L185.487123,112.667377 C191.197234,112.667377 194.057105,119.587637 190.019204,123.63479" id="Fill-46" fill="#FFFFFF"></path>
                    <path d="M174.231009,210.99774 C134.006101,210.99774 101.343553,259.639316 100.833073,319.932979 C103.527724,320.407498 106.288315,320.836719 109.138555,321.203562 C143.883771,325.67251 164.415574,324.485098 179.178735,325.489088 L182.60169,325.489088 C196.63951,324.534109 215.904375,325.557407 247.637095,321.81769 C247.637836,321.666943 247.640799,321.516196 247.640799,321.365448 C247.640799,260.410874 214.774504,210.99774 174.231009,210.99774" id="Fill-48" fill="url(#radialGradient-2)"></path>
                </g>
                <path d="M142,108 C129.850061,108 120,102.627541 120,95.9995474 C120,89.3724588 129.850061,84 142,84 C154.149939,84 164,89.3724588 164,95.9995474 C164,102.627541 154.149939,108 142,108" id="eyelid_l" fill="#F7743F"></path>
                <path d="M220,108 C207.850061,108 198,102.627541 198,95.9995474 C198,89.3724588 207.850061,84 220,84 C232.149939,84 242,89.3724588 242,95.9995474 C242,102.627541 232.149939,108 220,108" id="eyelid_r" fill="#F7743F"></path>
            </g>
        </g>
    </g>
</svg>